<svg xmlns="http://www.w3.org/2000/svg" width="980.642" height="117.54" viewBox="0 0 980.642 117.54"><g transform="translate(-149.68 -341.23)"><path d="M149.68,377.11v73.55H165.9V377.11" fill="#3ca4dd"/><path d="M182.58,368.55a32.58,32.58,0,0,0-17.48,5.05,8.07,8.07,0,0,1,.8,3.51v52.47a32.79,32.79,0,1,0,16.68-61m0,49.47a16.64,16.64,0,1,0,0-.05" fill="#009fe3" opacity="0.8"/><path d="M165.1,373.6a32.8,32.8,0,0,0,.8,56V377.11a8.07,8.07,0,0,0-.8-3.51" fill="#6c63ff" opacity="0.8"/><path d="M149.68,450.66a8.11,8.11,0,1,1,8.11,8.11A8.11,8.11,0,0,1,149.68,450.66Z" fill="#1b1464"/><path d="M149.68,377.06a8.11,8.11,0,1,1,8.11,8.11,8.11,8.11,0,0,1-8.11-8.11Z" fill="#f20893"/><path d="M272.85,369.68c-29.45-10.54-42.76,9.45-42.77,26.22a8.11,8.11,0,1,0,16.22,0h0c0-2.14,1.13-10.54,7.46-12.48,4.13-1.25,9.55.07,13.63,1.53Z" fill="#009fe3" opacity="0.8"/><path d="M262,377.32a8.11,8.11,0,1,1,8.11,8.11A8.11,8.11,0,0,1,262,377.32Z" fill="#f20893"/><path d="M246.3,424V374.8a8.11,8.11,0,0,0-16.22,0V424H246.3" fill="#009fe3" opacity="0.8"/><path d="M244.58,369.78c-9.86,5.2-14.5,16.22-14.5,26.12a8.11,8.11,0,1,0,16.22,0h0V374.77a8,8,0,0,0-1.72-5" fill="#6c63ff" opacity="0.8"/><path d="M307.5,399.69h0a20.55,20.55,0,0,0,1.52,8,14.91,14.91,0,0,0,8.31,8.21,21.5,21.5,0,0,0,8.11,1.43h0a17.921,17.921,0,0,0,6.45-1.28,18.73,18.73,0,0,0,5.78-3.5l10.83,12.08a35.161,35.161,0,0,1-10.73,6.54,34.13,34.13,0,0,1-12.36,2.38h0a38.79,38.79,0,0,1-12.14-1.86,31.921,31.921,0,0,1-10-5.43,30.491,30.491,0,0,1-5.14-5.27,32.459,32.459,0,0,1-4.63-8.49,37.1,37.1,0,0,1-2.21-12.83Z" fill="#009fe3" opacity="0.8"/><path d="M323.85,365.81h0c-17.77,0-32.54,15.21-32.53,33.88H307.5c0-9.81,7.58-17.66,16.32-17.66,7.19,0,12.51,3.7,15.1,9.55l17.85,8.11c0-18.9-13.66-33.88-32.92-33.88" fill="#009fe3" opacity="0.8"/><path d="M299.39,391.58a8.11,8.11,0,0,0-8.11,8.11h0a8.11,8.11,0,1,0,8.11-8.11" fill="#6c63ff" opacity="0.8"/><path d="M338.92,391.58H320.6a8.11,8.11,0,1,0,0,16.22h28.06Z" fill="#3fa9f5"/><path d="M348.66,391.58h-9.74l.06.14a20.159,20.159,0,0,1,1.57,8,8.11,8.11,0,0,0,8.11,8.11h0a8.11,8.11,0,0,0,8.11-8.11h0a8.11,8.11,0,0,0-8.11-8.11" fill="#f20893"/><path d="M335,418.61a8.11,8.11,0,1,1,8.11,8.11A8.11,8.11,0,0,1,335,418.61Z" fill="#3ca4dd"/><path d="M400.06,349.34V409c0,6.32,4.13,7.42,10.48,6.49l2.36,16.05c-18.66,2.74-29-7.9-29.06-23v-59.2" fill="#009fe3" opacity="0.8"/><path d="M411.27,364.67H400.06v16.22h11.21Zm-27.43,0h-4.93a8.11,8.11,0,1,0,0,16.22h4.93V364.67" fill="#009fe3" opacity="0.8"/><path d="M400.06,364.67H383.84v16.22h16.22V364.67" fill="#6c63ff" opacity="0.8"/><path d="M383.84,349.34a8.11,8.11,0,1,1,8.11,8.11,8.11,8.11,0,0,1-8.11-8.11Z" fill="#3ca4dd"/><path d="M403.16,372.78a8.11,8.11,0,1,1,8.11,8.11,8.11,8.11,0,0,1-8.11-8.11Z" fill="#1b1464"/><path d="M403.61,423.51a8.11,8.11,0,1,1,8.11,8.11A8.11,8.11,0,0,1,403.61,423.51Z" fill="#3fa9f5"/><path d="M551.29,373.13a32.27,32.27,0,0,0-20-7v16.22A16.41,16.41,0,0,1,545,389.91c7.53,11.42-.42,26.94-13.74,26.94v16.22a32.352,32.352,0,0,0,20.1-7c.328-.258.648-.528,1-.8V374C552,373.68,551.64,373.4,551.29,373.13Z" fill="#009fe3" opacity="0.8"/><path d="M567.32,374.9l-16-1.77h0a7.234,7.234,0,0,0-.22,1.75c0,52.79-.11,49.84.27,51.15h0l15.94-1.95V374.9Z" fill="#3ea4dd"/><path d="M551.29,373.13a8.567,8.567,0,0,0-.19,1.77c0,53.13-.1,49.8.24,51.17a33.84,33.84,0,0,0-.05-52.94" fill="#6c63ff" opacity="0.8"/><path d="M531.23,416.85h0c-9.18,0-16.62-7.7-16.63-17.23s7.41-17.24,16.63-17.24V366.16c-23.58,0-39.31,24.54-30.28,46.42a32.85,32.85,0,0,0,30.28,20.49Z" fill="#009fe3" opacity="0.8"/><path d="M531.23,366.16h0a8.11,8.11,0,0,0,0,16.22h0a8.11,8.11,0,0,0,0-16.22m0,50.69h0a8.11,8.11,0,0,0,0,16.22h0a8.11,8.11,0,0,0,0-16.22" fill="#6c63ff" opacity="0.8"/><path d="M551.1,374.9a8.11,8.11,0,1,1,8.11,8.11A8.11,8.11,0,0,1,551.1,374.9Z" fill="#f20893"/><path d="M551.1,424.12a8.11,8.11,0,1,1,8.11,8.11A8.11,8.11,0,0,1,551.1,424.12Z" fill="#3fa9f5"/><path d="M634.62,452.74c10.28,1.39,20-1.06,25.4-9.85A23.37,23.37,0,0,0,663.58,432V375H647.36c0,58.09.08,55.43-.2,56.83-.68,3.35-2.46,5.92-10.37,4.85Z" fill="#009fe3" opacity="0.8"/><path d="M647.39,350.4a8.11,8.11,0,1,1,8.11,8.11A8.11,8.11,0,0,1,647.39,350.4Z" fill="#009fe3" opacity="0.8"/><path d="M627.59,444.7a8.11,8.11,0,1,1,8.11,8.11A8.11,8.11,0,0,1,627.59,444.7Z" fill="#3fa9f5"/><circle cx="8.11" cy="8.11" r="8.11" transform="translate(647.39 366.88)" fill="#3ca4dd"/><path d="M731.55,400.15a17.272,17.272,0,0,0-.8-5.22,17.6,17.6,0,0,0-2.27-4.6,18.16,18.16,0,0,0-8-6.45,18.541,18.541,0,0,0-7.16-1.41,18.839,18.839,0,0,0-5.47.8,18.47,18.47,0,0,0-4.79,2.26,17.85,17.85,0,0,0-6.58,7.8,17.191,17.191,0,0,0-1.41,6.82H678.84A33.069,33.069,0,0,1,680.4,390a33.81,33.81,0,0,1,4.37-8.9,34.61,34.61,0,0,1,28.53-14.87h0a34.729,34.729,0,0,1,19.2,5.75A34,34,0,0,1,745,386.89a33.39,33.39,0,0,1,2.74,13.26Z" fill="#009fe3" opacity="0.8"/><path d="M747.77,400.15a8.11,8.11,0,0,1-16.22,0h0c0,9.84-8.23,17.68-18.25,17.68a18,18,0,0,1-18.25-17.68h0a8.11,8.11,0,0,1-16.22,0c0,18.67,15.4,33.9,34.47,33.9h0c19,0,34.47-15.18,34.47-33.9" fill="#3ea4dd"/><path d="M687,392a8.11,8.11,0,0,0-8.11,8.11h0a8.11,8.11,0,0,0,16.22,0h0A8.12,8.12,0,0,0,687,392" fill="#1b1464"/><path d="M739.66,392a8.11,8.11,0,0,0-8.11,8.11h0a8.11,8.11,0,0,0,16.22,0h0a8.11,8.11,0,0,0-8.11-8.11" fill="#1b1464"/><path d="M817.27,366.52a8.11,8.11,0,0,1,8.11,8.11v50a8.11,8.11,0,1,1-16.22,0v-50A8.11,8.11,0,0,1,817.27,366.52Z" fill="#009fe3" opacity="0.8"/><path d="M766.15,403.59c0,22.34,24.58,36.09,44.17,25.25a8.12,8.12,0,0,1-1.16-4.18V403.59c0,14.46-21.73,17.84-26.21,3.76a12.588,12.588,0,0,1-.58-3.76Z" fill="#009fe3" opacity="0.8"/><path d="M810.32,428.84a29.53,29.53,0,0,0,9.92-8.93,28.32,28.32,0,0,0,5.14-16.32,8.11,8.11,0,1,0-16.22,0v21.07a8.12,8.12,0,0,0,1.16,4.18" fill="#6c63ff" opacity="0.8"/><path d="M782.34,373.92a8.1,8.1,0,0,0-16.15,0h0v29.7h16.19v-29.7Z" fill="#009fe3" opacity="0.8"/><path d="M774.26,411.7a8.11,8.11,0,0,0,8.11-8.11h0a8.11,8.11,0,0,0-16.22,0h0a8.11,8.11,0,0,0,8.11,8.11" fill="#f20893"/><path d="M809.16,374.58a8.11,8.11,0,1,1,8.11,8.11A8.11,8.11,0,0,1,809.16,374.58Z" fill="#1b1464"/><path d="M861.21,399.69h0a20.549,20.549,0,0,0,1.53,8,14.83,14.83,0,0,0,8.31,8.21,21.461,21.461,0,0,0,8.11,1.43h0a18,18,0,0,0,6.45-1.28,19,19,0,0,0,5.78-3.5l10.82,12.08a35.119,35.119,0,0,1-10.72,6.54,34.209,34.209,0,0,1-12.36,2.38h0A38.79,38.79,0,0,1,867,431.71a31.759,31.759,0,0,1-10-5.43,30.488,30.488,0,0,1-5.14-5.27,32.488,32.488,0,0,1-4.64-8.49A37.339,37.339,0,0,1,845,399.69Z" fill="#009fe3" opacity="0.8"/><path d="M877.57,365.81h0C859.76,365.81,845,381,845,399.69h16.22c0-9.81,7.58-17.66,16.33-17.66,7.18,0,12.51,3.7,15.09,9.55l17.85,8.11c0-18.9-13.66-33.88-32.91-33.88" fill="#009fe3" opacity="0.8"/><path d="M853.1,391.58a8.11,8.11,0,0,0-8.11,8.11h0a8.11,8.11,0,1,0,8.11-8.11" fill="#6c63ff" opacity="0.8"/><path d="M892.63,391.58H874.32a8.11,8.11,0,0,0,0,16.22h28Z" fill="#009fe3" opacity="0.8"/><path d="M902.37,391.58h-9.74l.06.14a20.16,20.16,0,0,1,1.57,8,8.11,8.11,0,0,0,8.11,8.11h0a8.11,8.11,0,0,0,8.11-8.11h0a8.11,8.11,0,0,0-8.11-8.11" fill="#f20893"/><path d="M888.72,418.61a8.11,8.11,0,1,1,8.11,8.11A8.11,8.11,0,0,1,888.72,418.61Z" fill="#3ca4dd"/><path d="M967.29,369.68c-29.45-10.54-42.77,9.45-42.78,26.22a8.11,8.11,0,0,0,16.22,0h0c0-2.14,1.13-10.54,7.46-12.48,4.14-1.25,9.55.07,13.63,1.53Z" fill="#3ca4dd"/><circle cx="8.11" cy="8.11" r="8.11" transform="translate(956.46 369.21)" fill="#f20893"/><path d="M939,369.78c-9.86,5.2-14.5,16.22-14.51,26.12a8.11,8.11,0,0,0,16.22,0h0V374.77a8.08,8.08,0,0,0-1.71-5" fill="#6c63ff" opacity="0.8"/><path d="M939.19,370a8.11,8.11,0,0,0-14.68,4.76V424h0a8.11,8.11,0,0,0,16.22,0h0V374.8a8.08,8.08,0,0,0-1.54-4.8Z" fill="#009fe3" opacity="0.8"/><path d="M1104.78,361.25c7.41,0,18.37,13.23-3.5,21.28a8.1,8.1,0,0,0-5.31,7.61v11.37a8.11,8.11,0,1,0,16.22,0v-6a43.461,43.461,0,0,0,4.73-2.66C1143.1,376,1126.43,345,1105.17,345Z" fill="#009fe3" opacity="0.8"/><path d="M1104.78,361.25c-8.94,0-11.86,3-14.54,7.84a8.111,8.111,0,1,1-14.18-7.88c5.85-10.51,14.42-16.15,28.66-16.18Z" fill="#6c63ff" opacity="0.8"/><path d="M1104.83,345a8.11,8.11,0,1,0,8.11,8.11,8.11,8.11,0,0,0-8.11-8.11" fill="#1b1464"/><path d="M1104.08,414.17a8.11,8.11,0,0,0-8.11,8.11v1.58a8.11,8.11,0,1,0,16.22,0v-1.58a8.11,8.11,0,0,0-8.11-8.11" fill="#1b1464"/><path d="M1096,401.51a8.11,8.11,0,1,1,8.11,8.11A8.11,8.11,0,0,1,1096,401.51Z" fill="#f20893"/><path d="M230.08,424a8.11,8.11,0,1,1,8.11,8.11A8.11,8.11,0,0,1,230.08,424Z" fill="#6c63ff"/></g></svg>