<svg xmlns="http://www.w3.org/2000/svg" xmlns:xlink="http://www.w3.org/1999/xlink" width="762.471" height="506.484" viewBox="0 0 762.471 506.484">
  <defs>
    <linearGradient id="linear-gradient" x1="0.5" x2="0.5" y2="1" gradientUnits="objectBoundingBox">
      <stop offset="0" stop-color="#f20893" stop-opacity="0.749"/>
      <stop offset="1" stop-color="#009fe3" stop-opacity="0.749"/>
    </linearGradient>
    <clipPath id="clip-path">
      <rect id="Rectangle_189" data-name="Rectangle 189" width="31.05" height="26.252" fill="none"/>
    </clipPath>
  </defs>
  <g id="Logo-ludi-finder-landing-page" transform="translate(-341.016 -151.26)">
    <path id="Tracé_338" data-name="Tracé 338" d="M443.364,370.4s34.136-207.457,109-91.681C596.73,347.36,637.008,195.74,749.65,195.74S808.442,320.5,924.015,334.962s81.41,135.259,14.437,144.459S914.98,543.769,850.53,596.293s-87.093,14.45-167.688,0-114.68-86.647-114.68-86.647-53.849-102.435-107.7-6.562S443.364,370.4,443.364,370.4Z" transform="translate(24.71 12.197)" fill="#009fe3" stroke="#009fe3" stroke-miterlimit="10" stroke-width="1"/>
    <path id="Tracé_339" data-name="Tracé 339" d="M355.535,358.22S395.991,112.358,484.69,249.566C537.265,330.913,585,151.26,718.459,151.26s69.675,147.81,206.6,164.948,96.484,160.272,17.126,171.116S914.4,563.625,838.02,625.87s-103.212,17.113-198.7,0-135.947-102.7-135.947-102.7-63.8-121.383-127.6-7.811S355.535,358.22,355.535,358.22Z" transform="translate(0 0)" fill="#fff" opacity="0.5"/>
    <path id="Tracé_340" data-name="Tracé 340" d="M430.022,365.809s34.136-207.495,109-91.744c44.368,68.643,84.647-82.965,197.288-82.965S795.1,315.91,910.672,330.347,992.1,465.619,925.109,474.806s-7.964,94.089-87.922,116.885c-84.914,24.21-121.535-117.458-167.688,0-29.932,76.211-114.68-86.647-114.68-86.647s-53.938-102.46-107.723-6.6S430.022,365.809,430.022,365.809Z" transform="translate(21.054 10.925)" fill="url(#linear-gradient)"/>
    <g id="Calque_3" data-name="Calque 3" transform="translate(358.363 345.235)">
      <path id="Tracé_341" data-name="Tracé 341" d="M429.5,435.3a182.291,182.291,0,0,1-17.406-8.41c-4.4-2.421-8.142-4.307-11.239-5.734a52.779,52.779,0,0,0-9.022-3.211l24.21-112.731c-2.727-.2-4.817-.319-6.282-.319a61.468,61.468,0,0,0-25.752,5.9,60.806,60.806,0,0,0-21.127,15.38q-8.257,9.429-8.257,19.623,0,8.142,4.154,11.685c2.778,2.357,6.983,3.517,12.64,3.517a15.721,15.721,0,0,0-1.083-2.548,20.54,20.54,0,0,1-1.121-8.091,37.9,37.9,0,0,1,5.747-21.28A34.1,34.1,0,0,1,391.2,316.139L367.844,424.8a30.9,30.9,0,0,1,3.606-.153,34.863,34.863,0,0,1,13.214,2.7,64.2,64.2,0,0,1,12.08,6.511q5.581,3.823,13.43,10.194a165.636,165.636,0,0,0,17.355,12.322,27.192,27.192,0,0,0,13.94,3.963q6.448,0,10.754-6.6T457.8,435.7a34.4,34.4,0,0,1-13.2,2.548,40.3,40.3,0,0,1-15.1-2.944Z" transform="translate(-354.63 -303.103)" fill="#009fe3" stroke="#009fe3" stroke-miterlimit="10" stroke-width="1"/>
      <path id="Tracé_342" data-name="Tracé 342" d="M562.062,309.84l-23.229,3.122-7.645,36.112v-.624a6.855,6.855,0,0,0-3.147-5.81,16.883,16.883,0,0,0-9.569-2.192,30.428,30.428,0,0,0-21.9,8.92,56.245,56.245,0,0,0-13.825,21.662,72.046,72.046,0,0,0-4.664,24.389v1.4a22.447,22.447,0,0,1-3.122,4.868,9.709,9.709,0,0,1-7.645,3.823,7.428,7.428,0,0,1-4.969-1.274,5.8,5.8,0,0,1-1.478-4.485,19.117,19.117,0,0,1,.624-5.02l11.3-53.377H450.3l-10.678,50.243a27.639,27.639,0,0,1-5.02,10.194,9.569,9.569,0,0,1-7.543,3.683c-3.135,0-4.689-2.154-4.689-6.435a23.074,23.074,0,0,1,.459-4.4l11.29-53.377h-22.6l-10.678,50.332a54.505,54.505,0,0,0-1.274,10.258q0,9.442,4.625,14.131a16.259,16.259,0,0,0,12.169,4.727,25.484,25.484,0,0,0,11.965-3.147q5.912-3.135,11.239-11.774a17.2,17.2,0,0,0,4.778,11.137,15.087,15.087,0,0,0,10.754,3.823,29.7,29.7,0,0,0,17.2-6.053,29.155,29.155,0,0,0,7.238-7.862,19.23,19.23,0,0,0,4.447,7.773,19.98,19.98,0,0,0,14.921,6.142q12.857,0,22.222-13.048a15.711,15.711,0,0,0,5.747,9.812,17.049,17.049,0,0,0,10.589,3.237,17.534,17.534,0,0,0,11.7-4.179,16.565,16.565,0,0,0,5.568-11.965,12.743,12.743,0,0,1-5.021.943c-4.294,0-6.371-2.09-6.448-6.295a17.631,17.631,0,0,1,.637-4.536Zm-40.023,81.754-.637,2.548a17.483,17.483,0,0,1-5.25,8.41,10.869,10.869,0,0,1-6.983,2.994,7.722,7.722,0,0,1-5.581-2.2q-2.294-2.192-2.268-10.054a69.966,69.966,0,0,1,2.816-18.132,57.506,57.506,0,0,1,7.849-17.572q5.02-7.3,11.315-7.314c3.415,0,5.479,1.848,6.371,5.5Z" transform="translate(-342.309 -301.749)" fill="#009fe3" stroke="#009fe3" stroke-miterlimit="10" stroke-width="1"/>
      <path id="Tracé_343" data-name="Tracé 343" d="M603.162,321.151a12.32,12.32,0,0,1-2.115-2.039,3.327,3.327,0,0,1-.7-2.052,9.953,9.953,0,0,1,1.873-4.868,43.659,43.659,0,0,1,5.1-6.371l-2.294-2.332a50.194,50.194,0,0,0-13.583,12.959c-3.428,4.867-5.1,9.327-5.1,13.418a10.5,10.5,0,0,0,9.977,10.984,6.815,6.815,0,0,0,1.019,0,10,10,0,0,0,7.518-3.058,10.87,10.87,0,0,0,2.994-7.926,8.919,8.919,0,0,0-1.274-5.02,15.47,15.47,0,0,0-3.415-3.7Z" transform="translate(-291.092 -303.49)" fill="#009fe3" stroke="#009fe3" stroke-miterlimit="10" stroke-width="1"/>
      <path id="Tracé_344" data-name="Tracé 344" d="M701.662,350.765H681.886l6.843-31.384q6.116,1.72,12.411,4.09a108.287,108.287,0,0,0,10.512,3.542,39.832,39.832,0,0,0,10.041,1.16,14.679,14.679,0,0,0,13.035-6.97,46.891,46.891,0,0,0,6.371-17.355,86.431,86.431,0,0,1-22.758,2.956,109.789,109.789,0,0,1-13.265-.777c-4.345-.522-6.843-.841-7.454-.943a117.85,117.85,0,0,0-15.558-1.414q-18.5,0-30.581,5.658T633.963,324.16a38.863,38.863,0,0,0-5.492,20.388q0,8.168,4.154,11.7c2.791,2.357,7,3.53,12.653,3.53a14.981,14.981,0,0,0-1.1-2.548,20.462,20.462,0,0,1-1.109-8.079q0-18.2,5.721-25.344a19.47,19.47,0,0,1,16.106-7.148h1.708L643.991,421.536h22.618L679.351,362.5h19.776Z" transform="translate(-279.537 -303.441)" fill="#009fe3" stroke="#009fe3" stroke-miterlimit="10" stroke-width="1"/>
      <path id="Tracé_345" data-name="Tracé 345" d="M1006.3,344.668a9.811,9.811,0,0,0-7.926-3.428A18.234,18.234,0,0,0,989,343.725a62.883,62.883,0,0,0-9.659,7.212l2.026-9.722H958.81l-10.691,50.357a70.319,70.319,0,0,1-13.239,11.965,25.994,25.994,0,0,1-14.526,3.925c-3.988,0-6.83-.917-8.55-2.752s-2.663-5.3-2.663-10.449q0-1.554.306-6.269a43.183,43.183,0,0,0,17.737-5.1,37.144,37.144,0,0,0,13.354-11.863,28.211,28.211,0,0,0,4.97-16.144q0-15.074-17.278-15.074a33.054,33.054,0,0,0-24.325,9.506,55.428,55.428,0,0,0-13.914,22.439,78.069,78.069,0,0,0-4.23,23.93v1.1a22.849,22.849,0,0,1-3.1,4.868,9.722,9.722,0,0,1-7.646,3.823,7.378,7.378,0,0,1-4.957-1.274,5.8,5.8,0,0,1-1.491-4.485,19.118,19.118,0,0,1,.637-5.02l18.043-84.774-23.127,3.122-7.645,36.111v-.624a6.855,6.855,0,0,0-3.147-5.811,16.961,16.961,0,0,0-9.57-2.192,30.454,30.454,0,0,0-21.917,8.92,56.461,56.461,0,0,0-13.813,21.662,72.041,72.041,0,0,0-4.574,24.287v.8a28.654,28.654,0,0,1-3.631,5.861,9.289,9.289,0,0,1-7.531,3.415,5.989,5.989,0,0,1-4.868-1.707A7.506,7.506,0,0,1,786,398.9a35.272,35.272,0,0,1,1.032-7.3c.675-3.1,1.44-6.269,2.268-9.506q2.051-7.989,3.147-13.583a53.094,53.094,0,0,0,1.1-10.117c0-5.976-1.555-10.41-4.7-13.354a17.954,17.954,0,0,0-12.742-4.4,23.968,23.968,0,0,0-18.374,8.792l1.707-8.155H736.814l-10.691,50.459a22.323,22.323,0,0,1-5.632,9.913,12,12,0,0,1-8.55,3.823A7.352,7.352,0,0,1,707,404.2a5.773,5.773,0,0,1-1.478-4.485,19.626,19.626,0,0,1,.612-5.02l11.29-53.428H694.905l-10.691,50.383a54.5,54.5,0,0,0-1.274,10.258q0,9.442,4.638,14.131a16.259,16.259,0,0,0,12.169,4.727,32.556,32.556,0,0,0,18.043-6.053,24.319,24.319,0,0,0,4.192-3.644l-1.835,8.665h22.758l10.678-50.408a30.794,30.794,0,0,1,5.021-10.436,9.06,9.06,0,0,1,7.238-4q5.632,0,5.632,8a43.941,43.941,0,0,1-1.1,8.639c-.726,3.555-1.5,7.161-2.357,10.831-.2.739-.6,2.408-1.172,5.02s-1.134,5.314-1.708,8.079a39.845,39.845,0,0,0-.79,7.48,18.489,18.489,0,0,0,4.472,12.628q4.473,5.1,14.016,5.1a25.383,25.383,0,0,0,15.775-5.9,28.2,28.2,0,0,0,6.46-7.645,18.87,18.87,0,0,0,4.281,7.289,19.98,19.98,0,0,0,14.921,6.142,22.542,22.542,0,0,0,13.418-4.09,37.809,37.809,0,0,0,9.812-10.359,15.583,15.583,0,0,0,4.931,10.041,15.379,15.379,0,0,0,10.448,3.415q15.138,0,24.389-13.354a18.935,18.935,0,0,0,4.97,8.244q6.448,6.053,18.056,6.053,20.388,0,35.538-18.221l-3.657,17.329h22.592l12.589-59.646a37.594,37.594,0,0,1,5.9-4.625A10.729,10.729,0,0,1,988.831,354a1.708,1.708,0,0,1,1.707.943,14.355,14.355,0,0,1,.943,2.994,12.475,12.475,0,0,0,1.809,4.778,5.378,5.378,0,0,0,4.638,1.708,10.308,10.308,0,0,0,8.295-3.415,11.812,11.812,0,0,0,2.995-8,12.5,12.5,0,0,0-2.918-8.334Zm-87.922,13.418c3.632-6.6,7.3-9.9,11.086-9.9,2.548,0,3.912,2.153,3.912,6.448a24.948,24.948,0,0,1-3.211,12.233,28.66,28.66,0,0,1-8.55,9.569,20.643,20.643,0,0,1-11.06,4.09,74.977,74.977,0,0,1,7.824-22.439Zm-70.987,33.589v.777a17.84,17.84,0,0,1-5.263,9.595,11.557,11.557,0,0,1-7.645,3.415,7.645,7.645,0,0,1-5.568-2.2q-2.281-2.2-2.294-10.054a70,70,0,0,1,2.842-18.132,57.212,57.212,0,0,1,7.849-17.572q5.033-7.3,11.29-7.314c3.428,0,5.5,1.848,6.448,5.5Z" transform="translate(-264.599 -301.727)" fill="#009fe3" stroke="#009fe3" stroke-miterlimit="10" stroke-width="1"/>
      <g id="Pion" transform="translate(219.698 8.372)">
        <path id="Tracé_346" data-name="Tracé 346" d="M563.787,419.987l35.767.319v-6.83a17.14,17.14,0,0,0-3.925-1.886c15.38-5.81,3.925-11.965,3.415-11.965a10.257,10.257,0,0,1-7.837-12.207c.089-.37.191-.752.319-1.121,0,0-5.466-2.74-5.3-3.249-7.352-7.008-10.767-32.136-10.767-32.811,11.965-1.2,11.111-4.791,10.423-5.645-10.589-.344-12.984-8.028-13.163-8.55,5.479.178,7.531-9.06,7.645-9.735-1.2-16.068-15.036-16.246-15.036-16.246h0s-13.851.178-15.049,16.246c.178.675,2.23,9.913,7.645,9.735-.178.522-2.548,8.206-13.163,8.55-.688.854-1.542,4.447,10.423,5.645,0,.675-3.415,25.8-10.767,32.811.166.51-5.3,3.249-5.3,3.249a10.194,10.194,0,0,1-6.371,13.023,8.594,8.594,0,0,1-1.121.306c-.51,0-11.965,6.155,3.415,11.965a17.4,17.4,0,0,0-3.925,1.886v6.83l35.793-.319" transform="translate(-527.047 -310.06)" fill="#009fe3" stroke="#009fe3" stroke-linecap="round" stroke-linejoin="round" stroke-width="1"/>
        <path id="Tracé_347" data-name="Tracé 347" d="M542.17,369.42s21.662,4.638,37.7,0" transform="translate(-522.9 -293.782)" fill="#009fe3" stroke="#009fe3" stroke-linecap="round" stroke-linejoin="round" stroke-width="0.5"/>
        <path id="Tracé_348" data-name="Tracé 348" d="M537.31,389s25.115,3.963,48.191,0" transform="translate(-524.233 -288.413)" fill="#009fe3" stroke="#009fe3" stroke-linecap="round" stroke-linejoin="round" stroke-width="0.5"/>
        <path id="Tracé_349" data-name="Tracé 349" d="M552.2,340.86s8.384,1.707,12.742,0" transform="translate(-520.149 -301.614)" fill="#009fe3" stroke="#009fe3" stroke-linecap="round" stroke-linejoin="round" stroke-width="0.5"/>
        <path id="Tracé_350" data-name="Tracé 350" d="M553.76,330.13a19.636,19.636,0,0,0,9.264,0" transform="translate(-519.722 -304.556)" fill="#009fe3" stroke="#009fe3" stroke-linecap="round" stroke-linejoin="round" stroke-width="0.5"/>
      </g>
    </g>
    <g id="Calque_2" data-name="Calque 2" transform="translate(354.923 341.769)">
      <path id="Tracé_351" data-name="Tracé 351" d="M426.829,432.6a178,178,0,0,1-17.47-8.346q-6.575-3.606-11.226-5.721a51.726,51.726,0,0,0-9.022-3.211l24.21-112.731c-2.74-.2-4.817-.319-6.295-.319a65.342,65.342,0,0,0-46.866,21.28q-8.232,9.48-8.232,19.547,0,8.155,4.154,11.7c2.778,2.357,6.983,3.517,12.64,3.517a14.336,14.336,0,0,0-1.1-2.548,20.565,20.565,0,0,1-1.109-8.091,37.792,37.792,0,0,1,5.747-21.28,34.2,34.2,0,0,1,16.259-13l-23.42,108.819a28.462,28.462,0,0,1,3.606-.153,34.584,34.584,0,0,1,13.265,2.663,63.212,63.212,0,0,1,12.092,6.511c3.721,2.548,8.181,5.951,13.43,10.13a160.711,160.711,0,0,0,17.355,12.322,27.2,27.2,0,0,0,13.94,3.976c4.294,0,7.862-2.2,10.754-6.6s4.74-10.41,5.568-18.056a34.683,34.683,0,0,1-13.188,2.548A40.315,40.315,0,0,1,426.829,432.6Z" transform="translate(-351.93 -300.359)" fill="#f20893" stroke="#f20893" stroke-miterlimit="10" stroke-width="1"/>
      <path id="Tracé_352" data-name="Tracé 352" d="M559.382,307.15l-23.229,3.135L528.508,346.4v-.624a6.83,6.83,0,0,0-3.135-5.823,16.9,16.9,0,0,0-9.582-2.179,30.416,30.416,0,0,0-21.891,8.92,56.067,56.067,0,0,0-13.825,21.662,72.351,72.351,0,0,0-4.638,24.414v1.4a22.014,22.014,0,0,1-3.109,4.88,9.723,9.723,0,0,1-7.645,3.823,7.326,7.326,0,0,1-4.957-1.338,5.759,5.759,0,0,1-1.478-4.473,18.513,18.513,0,0,1,.624-5.02l11.3-53.39H447.62l-10.691,50.4a27.588,27.588,0,0,1-5.02,10.194,9.608,9.608,0,0,1-7.543,3.7c-3.147,0-4.7-2.153-4.7-6.448a22.09,22.09,0,0,1,.471-4.383l11.29-53.39H408.832l-10.678,50.4a53.358,53.358,0,0,0-1.274,10.258c0,6.282,1.529,10.984,4.625,14.131a16.247,16.247,0,0,0,12.169,4.715,25.345,25.345,0,0,0,11.965-3.135q5.9-3.135,11.226-11.787a17.317,17.317,0,0,0,4.791,11.149,15.074,15.074,0,0,0,10.755,3.823,29.486,29.486,0,0,0,17.253-6.269,28.833,28.833,0,0,0,7.25-7.862,19.113,19.113,0,0,0,4.447,7.785,19.967,19.967,0,0,0,14.921,6.129q12.857,0,22.223-13.035a15.723,15.723,0,0,0,5.734,9.812,17.073,17.073,0,0,0,10.6,3.224,17.5,17.5,0,0,0,11.685-4.167,16.629,16.629,0,0,0,5.581-11.965,12.844,12.844,0,0,1-5.033.943q-6.371,0-6.435-6.295a18.38,18.38,0,0,1,.624-4.549Zm-40.023,81.792-.624,2.548a17.546,17.546,0,0,1-5.25,8.41,10.971,10.971,0,0,1-7,2.994,7.645,7.645,0,0,1-5.568-2.2c-1.529-1.478-2.281-4.817-2.268-10.054a69.343,69.343,0,0,1,2.867-18.17,57.212,57.212,0,0,1,7.849-17.572q5.02-7.3,11.315-7.314c3.415,0,5.479,1.848,6.371,5.5Z" transform="translate(-339.604 -299.021)" fill="#f20893" stroke="#f20893" stroke-miterlimit="10" stroke-width="1"/>
      <path id="Tracé_353" data-name="Tracé 353" d="M600.482,318.482a12.4,12.4,0,0,1-2.128-2.039,3.491,3.491,0,0,1-.7-2.051,10.092,10.092,0,0,1,1.886-4.868,43.836,43.836,0,0,1,5.1-6.435l-2.281-2.319a50.434,50.434,0,0,0-13.6,12.959c-3.415,4.868-5.1,9.327-5.1,13.418a10.487,10.487,0,0,0,9.977,10.984h1.007a10.194,10.194,0,0,0,7.531-3.058,10.83,10.83,0,0,0,2.982-7.926,8.919,8.919,0,0,0-1.274-5.1,15.687,15.687,0,0,0-3.4-3.568Z" transform="translate(-288.387 -300.77)" fill="#f20893" stroke="#f20893" stroke-miterlimit="10" stroke-width="1"/>
      <path id="Tracé_354" data-name="Tracé 354" d="M698.985,348.146H679.209l6.843-31.4q6.116,1.695,12.4,4.09a109.46,109.46,0,0,0,10.512,3.53,39.882,39.882,0,0,0,10.054,1.172,14.628,14.628,0,0,0,13.023-6.983,46.866,46.866,0,0,0,6.448-17.342,87.034,87.034,0,0,1-22.847,2.969,107.264,107.264,0,0,1-13.265-.79c-4.345-.51-6.843-.828-7.454-.93A115.747,115.747,0,0,0,679.362,301q-18.5,0-30.581,5.658T631.26,321.5a38.928,38.928,0,0,0-5.479,20.388q0,8.142,4.154,11.685t12.691,3.491a13.651,13.651,0,0,0-1.083-2.548,20.477,20.477,0,0,1-1.121-8.079q0-18.221,5.734-25.357a19.457,19.457,0,0,1,16.093-7.136h1.72l-22.617,104.8h22.617L676.711,359.7h19.776Z" transform="translate(-276.834 -300.707)" fill="#f20893" stroke="#f20893" stroke-miterlimit="10" stroke-width="1"/>
      <path id="Tracé_355" data-name="Tracé 355" d="M1003.582,341.981a9.773,9.773,0,0,0-7.925-3.415,18.157,18.157,0,0,0-9.391,2.485,62.663,62.663,0,0,0-9.659,7.212l2.039-9.735H956.117l-10.678,50.408A69.164,69.164,0,0,1,932.187,400.9a25.968,25.968,0,0,1-14.526,3.937q-5.964,0-8.537-2.752c-1.72-1.835-2.676-5.3-2.676-10.449,0-1.045.1-3.122.306-6.269a43,43,0,0,0,17.75-5.1,37.092,37.092,0,0,0,13.354-11.85,28.211,28.211,0,0,0,5.02-16.17q0-15.074-17.279-15.087a33.13,33.13,0,0,0-24.325,9.506,55.428,55.428,0,0,0-13.915,22.452,78,78,0,0,0-4.243,23.93v1.083a22.372,22.372,0,0,1-3.084,4.88,9.722,9.722,0,0,1-7.645,3.823,7.327,7.327,0,0,1-4.957-1.338,5.773,5.773,0,0,1-1.491-4.473,19.033,19.033,0,0,1,.637-5.02L884.62,307.22l-23.127,3.135-7.645,36.112v-.624a6.881,6.881,0,0,0-3.147-5.823,16.985,16.985,0,0,0-9.569-2.179,30.454,30.454,0,0,0-21.917,8.92A56.217,56.217,0,0,0,805.4,368.421a71.672,71.672,0,0,0-4.638,24.414v.8a28.15,28.15,0,0,1-3.619,5.874,9.328,9.328,0,0,1-7.531,3.415,6.014,6.014,0,0,1-4.88-1.707,7.646,7.646,0,0,1-1.414-4.88,36.008,36.008,0,0,1,1.019-7.289c.688-3.109,1.453-6.269,2.281-9.506q2.039-8,3.147-13.6a51.865,51.865,0,0,0,1.083-10.117q0-8.92-4.689-13.341a17.967,17.967,0,0,0-12.742-4.4,23.892,23.892,0,0,0-18.31,8.639l1.708-8.142H734.122l-10.678,50.447a22.094,22.094,0,0,1-5.645,9.913,11.914,11.914,0,0,1-8.537,3.823,7.326,7.326,0,0,1-4.944-1.274,5.861,5.861,0,0,1-1.491-4.485,19.632,19.632,0,0,1,.624-5.02l11.315-53.377H692.212L681.534,389a54.5,54.5,0,0,0-1.274,10.257q0,9.429,4.625,14.131a16.259,16.259,0,0,0,12.182,4.715,32.353,32.353,0,0,0,18.043-6.052,24.728,24.728,0,0,0,4.192-3.632l-1.835,8.665h22.681l10.691-50.408a30.736,30.736,0,0,1,5.02-10.449,9.072,9.072,0,0,1,7.225-3.988q5.645,0,5.645,7.989a43.925,43.925,0,0,1-1.1,8.652q-1.1,5.339-2.357,10.818c-.2.739-.6,2.421-1.172,5.033s-1.134,5.314-1.72,8.079a40.77,40.77,0,0,0-.777,7.467,18.438,18.438,0,0,0,4.473,12.64q4.472,5.1,14.016,5.1a25.561,25.561,0,0,0,15.788-5.9,28.29,28.29,0,0,0,6.46-7.645,18.96,18.96,0,0,0,4.269,7.3,20.018,20.018,0,0,0,14.921,6.142,22.63,22.63,0,0,0,13.418-4.09,37.982,37.982,0,0,0,9.811-10.359,15.66,15.66,0,0,0,4.944,10.041,15.444,15.444,0,0,0,10.449,3.415q15.138,0,24.389-13.354a18.885,18.885,0,0,0,4.969,8.244q6.448,6.04,18.056,6.052,20.388,0,35.525-18.221l-3.657,17.279h22.6l12.564-59.672a37.718,37.718,0,0,1,5.887-4.638,10.92,10.92,0,0,1,5.581-1.274,1.7,1.7,0,0,1,1.707.943,15.3,15.3,0,0,1,.943,2.982,12.448,12.448,0,0,0,1.809,4.791,5.365,5.365,0,0,0,4.626,1.707,10.359,10.359,0,0,0,8.308-3.415,11.875,11.875,0,0,0,2.994-8A12.55,12.55,0,0,0,1003.582,341.981ZM915.66,355.36q5.428-9.875,11.073-9.888,3.912,0,3.912,6.435a24.681,24.681,0,0,1-3.211,12.245,28.492,28.492,0,0,1-8.537,9.569,20.744,20.744,0,0,1-11.06,4.09A74.825,74.825,0,0,1,915.66,355.36Zm-71.038,33.589v.815a17.929,17.929,0,0,1-5.263,9.595,11.583,11.583,0,0,1-7.645,3.415,7.645,7.645,0,0,1-5.568-2.2q-2.268-2.217-2.294-10.054a69.384,69.384,0,0,1,2.841-18.132,57.483,57.483,0,0,1,7.836-17.572q5.033-7.3,11.3-7.314c3.415,0,5.5,1.848,6.448,5.5Z" transform="translate(-261.894 -299.001)" fill="#f20893" stroke="#f20893" stroke-miterlimit="10" stroke-width="1"/>
      <g id="Pion-2" transform="translate(219.724 8.423)">
        <path id="Tracé_356" data-name="Tracé 356" d="M561.107,417.307l35.767.319V410.8a16.859,16.859,0,0,0-3.925-1.886c15.38-5.81,3.925-11.965,3.415-11.965a10.194,10.194,0,0,1-7.837-12.207,11.252,11.252,0,0,1,.319-1.121s-5.479-2.74-5.3-3.249c-7.352-7.008-10.767-32.136-10.767-32.824,11.965-1.185,11.111-4.778,10.423-5.632-10.6-.344-12.984-8.04-13.163-8.55,5.466.166,7.518-9.06,7.645-9.748-1.2-16.055-15.049-16.234-15.049-16.234h0s-13.838.178-15.036,16.234c.166.688,2.217,9.913,7.645,9.748-.178.51-2.548,8.206-13.163,8.55-.688.854-1.542,4.447,10.423,5.632,0,.688-3.415,25.816-10.767,32.824.166.51-5.3,3.249-5.3,3.249a10.194,10.194,0,0,1-6.371,13.01,8.64,8.64,0,0,1-1.121.319c-.51,0-11.965,6.155,3.415,11.965a16.567,16.567,0,0,0-3.925,1.886v6.83l35.78-.319" transform="translate(-524.367 -307.38)" fill="#f20893" stroke="#f20893" stroke-miterlimit="10" stroke-width="1"/>
        <path id="Tracé_357" data-name="Tracé 357" d="M539.49,366.74s21.662,4.625,37.7,0" transform="translate(-520.22 -291.102)" fill="#f20893" stroke="#f20893" stroke-miterlimit="10" stroke-width="1"/>
        <path id="Tracé_358" data-name="Tracé 358" d="M534.63,386.3s25.115,3.963,48.178,0" transform="translate(-521.553 -285.738)" fill="#f20893" stroke="#f20893" stroke-miterlimit="10" stroke-width="1"/>
        <path id="Tracé_359" data-name="Tracé 359" d="M549.52,338.18s8.372,1.707,12.742,0" transform="translate(-517.469 -298.934)" fill="#f20893" stroke="#f20893" stroke-miterlimit="10" stroke-width="1"/>
        <path id="Tracé_360" data-name="Tracé 360" d="M551.08,327.45a19.635,19.635,0,0,0,9.264,0" transform="translate(-517.042 -301.876)" fill="#f20893" stroke="#f20893" stroke-miterlimit="10" stroke-width="1"/>
      </g>
    </g>
    <g id="Premier_logo" data-name="Premier logo" transform="translate(351.495 338.431)">
      <path id="Tracé_361" data-name="Tracé 361" d="M424.113,429.934a180.926,180.926,0,0,1-17.419-8.41q-6.588-3.606-11.226-5.721a52.579,52.579,0,0,0-9.034-3.224l24.21-112.718c-2.74-.2-4.829-.331-6.295-.331a65.482,65.482,0,0,0-46.866,21.28q-8.244,9.493-8.244,19.559c0,5.441,1.389,9.327,4.154,11.7s7,3.517,12.653,3.517a14.858,14.858,0,0,0-1.1-2.548,20.465,20.465,0,0,1-1.109-8.079,37.768,37.768,0,0,1,5.747-21.28,34.2,34.2,0,0,1,16.3-13l-23.42,108.806a34.14,34.14,0,0,1,3.606-.153,34.6,34.6,0,0,1,13.265,2.676,62.044,62.044,0,0,1,12.08,6.511c3.733,2.548,8.193,5.938,13.443,10.13A161.819,161.819,0,0,0,422.2,450.972a27.116,27.116,0,0,0,13.953,3.963c4.294,0,7.862-2.2,10.754-6.588s4.727-10.41,5.568-18.056a34.4,34.4,0,0,1-13.2,2.548,40.035,40.035,0,0,1-15.163-2.905Z" transform="translate(-349.24 -297.772)"/>
      <path id="Tracé_362" data-name="Tracé 362" d="M556.7,304.47,533.476,307.6l-7.645,36.112v-.637a6.843,6.843,0,0,0-3.147-5.81,16.959,16.959,0,0,0-9.569-2.192A30.416,30.416,0,0,0,491.222,344,55.912,55.912,0,0,0,477.4,365.658a71.8,71.8,0,0,0-4.638,24.427v1.4a22.581,22.581,0,0,1-3.109,4.867A9.722,9.722,0,0,1,462,400.177a7.467,7.467,0,0,1-4.957-1.338,5.824,5.824,0,0,1-1.491-4.473,19.2,19.2,0,0,1,.637-5.033l11.3-53.377H444.917l-10.678,50.4a27.613,27.613,0,0,1-5.033,10.13,9.607,9.607,0,0,1-7.531,3.7c-3.147,0-4.7-2.153-4.7-6.448a23.194,23.194,0,0,1,.459-4.4l11.3-53.377H406.155l-10.691,50.4a54.389,54.389,0,0,0-1.274,10.194c0,6.295,1.542,11,4.638,14.144A16.3,16.3,0,0,0,411,415.4a25.243,25.243,0,0,0,11.965-3.147q5.887-3.109,11.226-11.774a17.278,17.278,0,0,0,4.791,11.149,15.035,15.035,0,0,0,10.755,3.823,29.6,29.6,0,0,0,17.189-6.053,29.206,29.206,0,0,0,7.25-7.862,19.2,19.2,0,0,0,4.434,7.773,20.031,20.031,0,0,0,14.934,6.142q12.87,0,22.21-13.035a15.774,15.774,0,0,0,5.747,9.812,17.139,17.139,0,0,0,10.6,3.224,17.559,17.559,0,0,0,11.685-4.167,16.7,16.7,0,0,0,5.581-11.965,13.366,13.366,0,0,1-5.1.943q-6.371,0-6.448-6.295a18.218,18.218,0,0,1,.637-4.549Zm-40.036,81.793-.637,2.548a17.431,17.431,0,0,1-5.237,8.41,11.035,11.035,0,0,1-7,2.994,7.747,7.747,0,0,1-5.568-2.2q-2.281-2.217-2.281-10.054a69.357,69.357,0,0,1,2.829-18.132,57.341,57.341,0,0,1,7.837-17.572q5.02-7.3,11.315-7.327c3.428,0,5.492,1.848,6.435,5.5Z" transform="translate(-336.914 -296.417)"/>
      <path id="Tracé_363" data-name="Tracé 363" d="M597.8,315.8a12.335,12.335,0,0,1-2.128-2.026,3.529,3.529,0,0,1-.7-2.052,10.194,10.194,0,0,1,1.886-4.88,44.409,44.409,0,0,1,5.1-6.371l-2.293-2.319A50.521,50.521,0,0,0,586.1,311.02c-3.415,4.88-5.1,9.34-5.1,13.418a10.487,10.487,0,0,0,9.964,11h1.019a10.079,10.079,0,0,0,7.518-3.058,10.806,10.806,0,0,0,2.994-7.938,9.036,9.036,0,0,0-1.274-5.02A16.006,16.006,0,0,0,597.8,315.8Z" transform="translate(-285.688 -298.15)"/>
      <path id="Tracé_364" data-name="Tracé 364" d="M696.313,345.408H676.5l6.83-31.4q6.142,1.695,12.411,4.078a106.109,106.109,0,0,0,10.512,3.542,39.3,39.3,0,0,0,10.054,1.16,14.615,14.615,0,0,0,13.023-6.97,47.146,47.146,0,0,0,6.447-17.355,86.533,86.533,0,0,1-22.86,2.982,109.972,109.972,0,0,1-13.265-.79c-4.332-.51-6.83-.841-7.441-.943a117.847,117.847,0,0,0-15.558-1.414q-18.515,0-30.581,5.658T628.55,318.79a39,39,0,0,0-5.479,20.388q0,8.142,4.154,11.685t12.64,3.542a13.693,13.693,0,0,0-1.1-2.549,20.529,20.529,0,0,1-1.108-8.091q0-18.2,5.734-25.344a19.445,19.445,0,0,1,16.094-7.148H661.2l-22.6,104.881h22.6l12.742-59.035h19.776Z" transform="translate(-274.15 -298.109)"/>
      <path id="Tracé_365" data-name="Tracé 365" d="M1000.929,339.32A9.786,9.786,0,0,0,993,335.905a18.233,18.233,0,0,0-9.391,2.472,63.488,63.488,0,0,0-9.659,7.212l2.039-9.722H953.426l-10.678,50.408A69.584,69.584,0,0,1,929.5,398.24a25.969,25.969,0,0,1-14.526,3.925c-3.976,0-6.83-.9-8.55-2.74s-2.663-5.3-2.663-10.449q0-1.567.306-6.269a43.2,43.2,0,0,0,17.75-5.1,37.094,37.094,0,0,0,13.341-11.863,28.032,28.032,0,0,0,5.033-16.17q0-15.061-17.291-15.074a33.041,33.041,0,0,0-24.351,9.467,55.327,55.327,0,0,0-13.914,22.439,77.723,77.723,0,0,0-4.243,23.93v1.1a22.356,22.356,0,0,1-3.1,4.868,9.722,9.722,0,0,1-7.645,3.823,7.39,7.39,0,0,1-4.957-1.338,5.76,5.76,0,0,1-1.478-4.473,19.187,19.187,0,0,1,.624-5.033L881.98,304.47,858.853,307.6l-7.645,36.112v-.637a6.818,6.818,0,0,0-3.147-5.811,16.948,16.948,0,0,0-9.57-2.192,30.582,30.582,0,0,0-21.9,8.92,56.067,56.067,0,0,0-13.813,21.662,71.8,71.8,0,0,0-4.638,24.427v.8a28.6,28.6,0,0,1-3.619,5.861,9.365,9.365,0,0,1-7.543,3.428,6.014,6.014,0,0,1-4.868-1.72,7.519,7.519,0,0,1-1.414-4.868,36.252,36.252,0,0,1,1.019-7.3c.688-3.1,1.44-6.269,2.281-9.506q2.051-7.989,3.135-13.583a51.888,51.888,0,0,0,1.1-10.117c0-5.963-1.555-10.41-4.7-13.354a17.915,17.915,0,0,0-12.742-4.383,23.917,23.917,0,0,0-18.374,8.78l1.707-8.155H731.43l-10.678,50.459a22.273,22.273,0,0,1-5.645,9.913,11.927,11.927,0,0,1-8.55,3.823,7.25,7.25,0,0,1-4.931-1.338,5.772,5.772,0,0,1-1.491-4.473,19.728,19.728,0,0,1,.612-5.033l11.315-53.377h-22.49l-10.678,50.4A53.371,53.371,0,0,0,677.62,396.6c0,6.282,1.529,10.984,4.625,14.131a16.3,16.3,0,0,0,12.169,4.715,32.492,32.492,0,0,0,18.094-6.078,23.7,23.7,0,0,0,4.18-3.644l-1.822,8.677h22.681l10.64-50.408a31,31,0,0,1,5.033-10.449,9.047,9.047,0,0,1,7.225-4c3.759,0,5.645,2.676,5.645,8a44.912,44.912,0,0,1-1.1,8.652q-1.083,5.326-2.357,10.818c-.2.739-.6,2.421-1.185,5.02s-1.121,5.314-1.708,8.091a40.777,40.777,0,0,0-.79,7.467,18.4,18.4,0,0,0,4.485,12.628q4.447,5.1,14.016,5.1a25.561,25.561,0,0,0,15.788-5.9,28.911,28.911,0,0,0,6.46-7.645,18.8,18.8,0,0,0,4.269,7.3,19.967,19.967,0,0,0,14.921,6.129,22.541,22.541,0,0,0,13.418-4.077,37.982,37.982,0,0,0,9.812-10.359,14.309,14.309,0,0,0,15.38,13.456q15.163,0,24.389-13.354a18.987,18.987,0,0,0,4.982,8.232q6.435,6.053,18.043,6.053,20.388,0,35.538-18.221L936.772,414.3h22.592l12.564-59.672a37.68,37.68,0,0,1,5.9-4.638,10.768,10.768,0,0,1,5.568-1.274,1.682,1.682,0,0,1,1.707.93,14.592,14.592,0,0,1,.943,2.994,12.656,12.656,0,0,0,1.809,4.791,5.467,5.467,0,0,0,4.638,1.707,10.4,10.4,0,0,0,8.308-3.415,11.939,11.939,0,0,0,2.995-8,12.6,12.6,0,0,0-2.867-8.4Zm-87.922,13.418q5.428-9.9,11.073-9.9,3.924,0,3.912,6.448a24.681,24.681,0,0,1-3.211,12.245,28.647,28.647,0,0,1-8.55,9.569,20.591,20.591,0,0,1-11.06,4.078A74.772,74.772,0,0,1,913.008,352.738Zm-71.038,33.589v.79a17.839,17.839,0,0,1-5.263,9.582,11.621,11.621,0,0,1-7.645,3.428,7.645,7.645,0,0,1-5.568-2.217q-2.268-2.2-2.294-10.041a69.909,69.909,0,0,1,2.829-18.132,57.685,57.685,0,0,1,7.849-17.572q5.02-7.3,11.3-7.327c3.415,0,5.5,1.848,6.448,5.5Z" transform="translate(-259.19 -296.417)"/>
      <g id="Pion-3" transform="translate(219.752 8.397)">
        <path id="Tracé_366" data-name="Tracé 366" d="M558.411,414.655l35.78.331v-6.843a16.666,16.666,0,0,0-3.937-1.873c15.393-5.81,3.937-11.965,3.428-11.965a10.194,10.194,0,0,1-7.836-12.207,8.755,8.755,0,0,1,.306-1.134s-5.466-2.727-5.288-3.237c-7.352-7.008-10.78-32.136-10.78-32.824,11.965-1.2,11.111-4.778,10.436-5.645-10.6-.331-13-8.028-13.163-8.537,5.466.166,7.518-9.06,7.645-9.748-1.185-16.068-15.036-16.234-15.036-16.234h0s-13.851.166-15.036,16.234c.166.688,2.217,9.913,7.645,9.748-.166.51-2.548,8.206-13.163,8.537-.675.866-1.529,4.447,10.436,5.645,0,.688-3.428,25.816-10.767,32.824.166.51-5.3,3.237-5.3,3.237a10.257,10.257,0,0,1-6.371,13.023,11.456,11.456,0,0,1-1.134.319c-.51,0-11.965,6.155,3.428,11.965a16.666,16.666,0,0,0-3.937,1.873v6.843l35.819-.331" transform="translate(-521.699 -304.74)"/>
        <path id="Tracé_367" data-name="Tracé 367" d="M536.8,364.06s21.662,4.625,37.7,0" transform="translate(-517.558 -288.473)"/>
        <path id="Tracé_368" data-name="Tracé 368" d="M532,383.61s25.1,3.976,48.178,0" transform="translate(-518.875 -283.112)"/>
        <path id="Tracé_369" data-name="Tracé 369" d="M546.84,335.5s8.372,1.707,12.742,0" transform="translate(-514.805 -296.305)"/>
        <path id="Tracé_370" data-name="Tracé 370" d="M548.39,324.77a19.635,19.635,0,0,0,9.264,0" transform="translate(-514.38 -299.247)"/>
      </g>
    </g>
    <g id="Groupe_76" data-name="Groupe 76" transform="translate(790.071 306.996)" clip-path="url(#clip-path)">
      <circle id="Ellipse_232" data-name="Ellipse 232" cx="12.704" cy="12.704" r="12.704" transform="translate(5.643 0.427)" fill="#009fe3"/>
      <circle id="Ellipse_233" data-name="Ellipse 233" cx="12.704" cy="12.704" r="12.704" transform="translate(3.039 0.427)" fill="#f20893"/>
      <circle id="Ellipse_234" data-name="Ellipse 234" cx="12.704" cy="12.704" r="12.704" transform="translate(0.427 0.427)"/>
    </g>
  </g>
</svg>
